<svg xmlns="http://www.w3.org/2000/svg" width="696" height="776" version="1.0" viewBox="0 0 522 582"><path d="M257.5 46.2c-1 .6-4.9 3.6-8.6 6.7-8 6.8-24 16.3-36.9 22.1-5.2 2.4-20.5 8.3-34 13.2-39.9 14.6-41.5 15.3-46 21.8-8.4 12.3-15.8 29.6-21 49.4-2.6 9.8-11.6 50.5-13.5 61.1-1.7 9.8-9.8 18.4-24.5 25.9l-9 4.7.6 6.7c1.3 14.3 4.4 19.7 10.6 18.6 16.3-3 26.3-7.9 35.2-17.5 12-12.9 17.2-26.6 26.1-68 11.5-53 19-68.2 43-86.6 13.9-10.8 23.5-16 37.5-20.7 24.6-8.2 51.8-8.7 79.6-1.6 43 11.1 66.9 36 76.3 79.3 3.1 14.3 4.9 31.5 6.6 64.2.8 15.9 2 33.7 2.5 39.5 3.3 33.7 11.3 58.2 24.7 75.7 7 9.2 21.3 21.7 22.9 20 1.1-1.1 5.4-14.8 6-19 .8-6-.9-10.9-6.6-18.7-8.9-12.1-12.3-21-14-36.5-.5-5-1.6-14.4-2.4-21-.8-6.6-1.9-20.3-2.5-30.5-3.3-53.9-5.1-70.2-10.1-89.4-3.3-13-6.3-21.3-11.6-32-5.4-11.2-8.4-13.4-24.6-18-36.7-10.4-68.4-25.7-94.3-45.5-6.8-5.3-8.6-5.8-12-3.9zM73.3 111c-20.2.7-18.8-1.5-18.6 29.3.1 22.4 1.5 54.6 2.9 69.4l.6 6.3h3.3c4.4 0 8.7-3.7 11.3-9.7 3.1-7.3 5-19.2 6.7-42 2.4-33.1 4-44.4 7.2-50.6.8-1.6 1.3-3 1.1-3-.2-.1-6.7 0-14.5.3zM437.4 113.6c7.2 28 8.3 47.9 6.1 104.2-1.4 34.4-1.5 45.3-.6 59.2.7 9.4 1.4 17.7 1.8 18.5.3.8 1.3 1.5 2.2 1.5 3.5 0 13.6-56.5 17.6-98.5 2.3-23.3 3.6-74.9 2.2-79.4-1.9-5.6-5.9-7.3-18.9-7.9l-11.1-.5.7 2.9z"/><path d="M244.3 115.1c-8.7 1.5-23.5 6.6-30.2 10.6-7.9 4.7-19.6 16.2-25.5 25.1-13.1 19.8-24.5 53.2-34.1 100.4-1.9 9.7-4.4 20.2-5.5 23.4-7.2 20.9-22.5 29.4-60.1 33.8-6.6.8-12.2 1.6-12.5 1.8-.2.3 1.3 6.1 3.3 13.1 4.2 14.9 1.4 13.7 24.5 10.7 29.7-3.8 46.7-9.9 58.3-21.1 9.9-9.5 12.5-15.4 19.5-44.6 11.3-46.9 15.9-62.9 22.6-78.6 7.4-17.2 18.1-31.7 28.1-38 13.5-8.5 31-8.8 48.5-.9 12.8 5.8 26.1 25.4 30.4 44.7 2.4 10.6 2.4 31.6 0 44-7.2 37.7-26.3 74.3-53.6 102.9-31.1 32.5-73 56.4-126.5 72.1l-13.1 3.8 4.1 7.7c6.2 11.7 8.4 14 13.7 14 2.1 0 49-16.6 64.8-23 15.9-6.3 39.1-20.4 56-33.8 20.8-16.6 43.4-42.4 56.5-64.7 21.5-36.6 31.6-77.3 28.5-115.2-2.6-31.4-8.9-47.8-24.9-64.6-15.6-16.3-36.4-24.9-59.6-24.6-4.4.1-10.3.5-13.2 1z"/><path d="M252.5 197.5c-4.5 2.2-5.4 4.4-7 17-3.1 23.2-9.1 41.6-22.3 68-9.5 19.1-15.1 27.2-26.5 38.2-19.3 18.6-43.1 30.6-84 42.3-9.3 2.7-17.1 5.1-17.4 5.4-.3.2.5 3.5 1.7 7.1 1.6 4.7 3.5 8 6.4 11.1 3.7 3.8 4.8 4.4 8.3 4.4 2.3 0 8.1-1.3 13-3 4.8-1.6 14-4.3 20.3-6 29.6-7.9 49.7-19.1 70.3-38.9 29.3-28.3 49.2-66.8 58.7-113.7 3.5-17.6 3.7-21.6 1-26-4-6.3-15.4-9.4-22.5-5.9zM344 305.8c-1.9.9-4.3 3.2-5.4 5.1-1.9 3.2-1.9 3.6-.3 12.7 3.4 19.1 12 40.6 21.3 52.9 9.3 12.6 26.3 27.4 38.3 33.4 6.9 3.6 8.5 2.6 13.7-8.3 2.4-5.1 4.4-9.7 4.4-10.2s-1.9-2.2-4.3-3.9c-7.2-5.1-19.8-17.6-26-26-9.6-12.9-17.9-31.5-20.2-45.2-1.6-10.1-12.2-15.2-21.5-10.5zM302.3 365.5c-7.1 3.1-7.7 7.9-2.8 23 10.4 32.1 32.6 59.3 59 72.1 11.6 5.7 14.6 4.7 22.4-7.1l4.9-7.3-12.2-8c-28.5-18.9-44-38.3-48.6-60.7-1.6-7.6-2.4-9.2-6.3-11.5-3.8-2.4-11.7-2.6-16.4-.5zM269.6 426.1c-17.1 2.5-40.2 10.8-83.4 30-17.2 7.6-31.7 13.9-32.3 13.9-1.3 0 8.3 12.1 12.7 15.9 1.9 1.7 4.5 3.1 5.7 3.1 2 0 27-8.6 36.2-12.5 2.2-.9 6.3-3.2 9-5.1 7-4.7 14.9-7.4 41.7-14.4 26.6-7 36.6-11.1 39.1-16.1 3-6.2-2.1-12.8-11.3-14.8-5.7-1.2-8.9-1.2-17.4 0zM254 476.7c-17 1.9-37.9 8.6-55 17.4-16.8 8.7-16.2 8.1-11.4 13 5.4 5.6 11.2 9.5 16.2 10.8 5.5 1.5 10.6.2 19.2-4.9 14.8-8.7 32.2-14 45.7-14 9.3 0 17.6 2 32.3 7.4 6.8 2.6 14.3 5 16.7 5.3 7.1 1 12.8-1.3 19.7-7.8 7.2-6.8 7.3-6.4-4.7-13.2-9.6-5.5-26.2-11.1-38.7-13.2-8.7-1.4-30.8-1.8-40-.8zM255.2 519.4c-8.9 1.7-17.4 5.7-19.7 9.3-2.3 3.5-2.3 9.8 0 12.3 2.5 2.8 11.4 7 14.7 7 1.5 0 5-.9 7.8-2 2.9-1.1 11.1-3.2 18.3-4.6 14.3-2.8 22.9-6.2 29.1-11.7l4-3.3-4.5-2.2c-2.4-1.2-7.1-2.8-10.4-3.7-8.4-2.2-30.1-2.8-39.3-1.1z"/></svg>